<svg width="478" height="478" viewBox="0 0 478 478" fill="none" xmlns="http://www.w3.org/2000/svg">
<circle cx="238.882" cy="239.354" r="168.723" transform="rotate(135 238.882 239.354)" fill="url(#paint0_radial_502_215)"/>
<path d="M179.938 172.845C179.938 172.845 179.938 172.844 179.938 172.845L304.185 297.093C306.275 299.182 306.275 302.57 304.185 304.659V304.659C302.096 306.749 298.708 306.749 296.619 304.659L172.257 180.298C172.006 180.046 171.83 179.729 171.75 179.382V179.382L171.603 178.589V178.589C171.576 178.103 171.584 177.616 171.627 177.131L171.644 176.942L171.739 176.074L171.78 175.599C171.806 175.295 171.872 174.996 171.976 174.71V174.71L171.993 174.679C172.127 174.426 172.292 174.19 172.483 173.978V173.978L172.807 173.681L173.127 173.394L173.446 173.084L173.486 173.05C173.679 172.89 173.891 172.756 174.119 172.652V172.652C174.295 172.572 174.479 172.51 174.668 172.468L175.111 172.369C175.205 172.348 175.296 172.319 175.384 172.281V172.281C175.593 172.193 175.819 172.15 176.046 172.156L176.291 172.163L176.925 172.254L177.45 172.293L177.917 172.37L178.529 172.449L179.474 172.682L179.938 172.846C179.938 172.846 179.938 172.845 179.938 172.845V172.845Z" fill="url(#paint1_linear_502_215)" fill-opacity="0.85"/>
<path d="M171.867 297.209C171.866 297.209 171.866 297.208 171.866 297.208L296.114 172.961C298.204 170.872 301.591 170.872 303.681 172.961V172.961C305.77 175.051 305.77 178.438 303.681 180.528L179.319 304.889C179.068 305.141 178.75 305.317 178.403 305.397V305.397L177.61 305.543V305.543C177.124 305.571 176.637 305.563 176.152 305.519L175.963 305.503L175.096 305.408L174.62 305.366C174.317 305.34 174.018 305.274 173.731 305.17V305.17L173.701 305.154C173.448 305.02 173.212 304.855 172.999 304.663V304.663L172.703 304.34L172.415 304.02L172.106 303.701L172.072 303.66C171.911 303.468 171.777 303.255 171.673 303.027V303.027C171.593 302.851 171.532 302.667 171.489 302.478L171.39 302.035C171.37 301.942 171.34 301.85 171.303 301.762V301.762C171.214 301.553 171.172 301.328 171.178 301.101L171.184 300.855L171.276 300.222L171.314 299.696L171.391 299.23L171.47 298.618L171.704 297.672L171.867 297.209C171.867 297.209 171.867 297.208 171.867 297.209V297.209Z" fill="url(#paint2_linear_502_215)" fill-opacity="0.85"/>
<path d="M149.77 239.584C149.77 239.584 149.77 239.583 149.77 239.583L326.481 228.502C329.43 228.317 331.971 230.558 332.156 233.507V233.507C332.341 236.456 330.1 238.997 327.151 239.182L150.277 250.274C149.919 250.297 149.563 250.219 149.247 250.049V250.049L148.551 249.635V249.635C148.166 249.334 147.803 249.006 147.465 248.653L147.334 248.515L146.743 247.871L146.41 247.525C146.199 247.305 146.017 247.058 145.871 246.791V246.791L145.858 246.758C145.756 246.49 145.688 246.21 145.655 245.926V245.926L145.647 245.487L145.643 245.057L145.622 244.613L145.624 244.561C145.631 244.31 145.672 244.062 145.745 243.822V243.822C145.802 243.637 145.878 243.458 145.972 243.289L146.193 242.891C146.239 242.807 146.278 242.719 146.309 242.628V242.628C146.381 242.412 146.499 242.215 146.654 242.05L146.824 241.869L147.315 241.454L147.695 241.085L148.064 240.787L148.531 240.379L149.338 239.824L149.77 239.585C149.771 239.584 149.77 239.584 149.77 239.584V239.584Z" fill="url(#paint3_linear_502_215)" fill-opacity="0.85"/>
<path d="M228.007 327.423C228.007 327.424 228.006 327.424 228.006 327.423L235.87 130.832C235.988 127.879 238.477 125.582 241.429 125.7V125.7C244.382 125.818 246.68 128.307 246.562 131.26L238.691 328.048C238.676 328.435 238.561 328.812 238.358 329.142V329.142L237.872 329.864L237.841 329.9C237.522 330.269 237.176 330.613 236.806 330.931L236.629 331.084L235.925 331.666L235.41 332.111C235.258 332.243 235.089 332.352 234.908 332.438V332.438C234.808 332.485 234.703 332.525 234.597 332.557V332.557C234.404 332.614 234.204 332.646 234.003 332.649L233.874 332.652L233.437 332.613L233.009 332.57L232.566 332.545L232.524 332.539C232.269 332.503 232.02 332.43 231.786 332.321V332.321C231.612 332.24 231.447 332.139 231.294 332.022L230.913 331.728C230.835 331.668 230.751 331.615 230.662 331.571V331.571C230.457 331.468 230.278 331.321 230.137 331.141L229.965 330.921L229.605 330.334L229.278 329.875L229.02 329.436L228.665 328.876L228.199 327.926L228.007 327.423C228.007 327.423 228.007 327.423 228.007 327.423V327.423Z" fill="url(#paint4_linear_502_215)" fill-opacity="0.85"/>
<circle cx="158.81" cy="159.283" r="29.2681" transform="rotate(135 158.81 159.283)" fill="url(#paint5_linear_502_215)"/>
<circle cx="318.956" cy="319.429" r="29.2681" transform="rotate(135 318.956 319.429)" fill="url(#paint6_linear_502_215)"/>
<circle cx="318.956" cy="159.282" r="29.2681" transform="rotate(135 318.956 159.282)" fill="url(#paint7_linear_502_215)"/>
<circle cx="158.81" cy="319.429" r="29.2681" transform="rotate(135 158.81 319.429)" fill="#FFF34A"/>
<circle cx="127.036" cy="246.265" r="29.2681" transform="rotate(135 127.036 246.265)" fill="url(#paint8_linear_502_215)"/>
<circle cx="235.146" cy="351.198" r="29.2681" transform="rotate(135 235.146 351.198)" fill="#00AA74"/>
<circle cx="242.618" cy="127.513" r="29.2681" transform="rotate(135 242.618 127.513)" fill="url(#paint9_radial_502_215)"/>
<circle cx="350.726" cy="235.619" r="29.2681" transform="rotate(135 350.726 235.619)" fill="url(#paint10_linear_502_215)"/>
<circle cx="239.09" cy="239.098" r="40.4101" transform="rotate(-105 239.09 239.098)" fill="url(#paint11_linear_502_215)"/>
<circle cx="239.832" cy="211.896" r="0.741699" fill="#D9D9D9"/>
<circle cx="262.304" cy="216.713" r="0.505371" fill="#D9D9D9"/>
<ellipse cx="224.821" cy="231.033" rx="0.420898" ry="0.505371" fill="#D9D9D9"/>
<ellipse cx="247.312" cy="235.75" rx="0.505371" ry="0.842285" fill="#D9D9D9"/>
<ellipse cx="266.263" cy="243.836" rx="1.93701" ry="0.673828" fill="#D9D9D9"/>
<circle cx="225.742" cy="253.401" r="0.5" fill="#D9D9D9"/>
<ellipse cx="245.963" cy="249.312" rx="0.842285" ry="0.420898" fill="#D9D9D9"/>
<ellipse cx="246.891" cy="266.495" rx="0.926269" ry="0.758301" fill="#D9D9D9"/>
<ellipse cx="262.304" cy="254.765" rx="0.505371" ry="0.863769" fill="#D9D9D9"/>
<ellipse cx="213.113" cy="237.351" rx="0.673828" ry="0.757812" fill="#D9D9D9"/>
<ellipse cx="236.024" cy="226.232" rx="0.336914" ry="0.421387" fill="#D9D9D9"/>
<ellipse cx="232.57" cy="244.931" rx="0.0839844" ry="1.09521" fill="#D9D9D9"/>
<ellipse cx="222.8" cy="266.116" rx="0.421387" ry="0.379395" fill="#D9D9D9"/>
<ellipse cx="224.821" cy="261.02" rx="0.420898" ry="0.336914" fill="#D9D9D9"/>
<ellipse cx="230.129" cy="253.401" rx="1.34766" ry="0.5" fill="#D9D9D9"/>
<ellipse cx="230.129" cy="248.217" rx="1.34766" ry="0.673828" fill="#D9D9D9"/>
<ellipse cx="231.308" cy="243.662" rx="1.1792" ry="0.5" fill="#D9D9D9"/>
<ellipse cx="233.076" cy="239.699" rx="0.589355" ry="0.600098" fill="#D9D9D9"/>
<ellipse cx="234.677" cy="236.172" rx="1.01123" ry="0.420898" fill="#D9D9D9"/>
<ellipse cx="239.832" cy="232.128" rx="0.741699" ry="0.589844" fill="#D9D9D9"/>
<ellipse cx="238.77" cy="227.074" rx="1.06104" ry="0.420898" fill="#D9D9D9"/>
<ellipse cx="240.994" cy="222.869" rx="0.421387" ry="0.76416" fill="#D9D9D9"/>
<ellipse cx="246.216" cy="221.812" rx="1.09521" ry="1.05566" fill="#D9D9D9"/>
<ellipse cx="250.85" cy="227.874" rx="0.842285" ry="1.64258" fill="#D9D9D9"/>
<ellipse cx="254.64" cy="235.75" rx="0.421387" ry="0.842285" fill="#D9D9D9"/>
<ellipse cx="256.998" cy="243.499" rx="0.589355" ry="0.336914" fill="#D9D9D9"/>
<ellipse cx="258.599" cy="249.312" rx="1.01123" ry="0.420898" fill="#D9D9D9"/>
<ellipse cx="260.957" cy="256.724" rx="1.34717" ry="1.09473" fill="#D9D9D9"/>
<ellipse cx="263.316" cy="264.81" rx="1.01123" ry="0.926269" fill="#D9D9D9"/>
<ellipse cx="235.183" cy="248.554" rx="0.505371" ry="0.336914" fill="#D9D9D9"/>
<ellipse cx="239.302" cy="248.764" rx="0.530273" ry="0.547363" fill="#D9D9D9"/>
<ellipse cx="243.773" cy="248.385" rx="0.505371" ry="0.168457" fill="#D9D9D9"/>
<ellipse cx="250.429" cy="248.933" rx="0.420898" ry="0.378906" fill="#D9D9D9"/>
<ellipse cx="254.64" cy="248.554" rx="0.421387" ry="0.336914" fill="#D9D9D9"/>
<ellipse cx="226.753" cy="256.176" rx="0.510742" ry="0.547363" fill="#D9D9D9"/>
<ellipse cx="210.334" cy="244.546" rx="0.589844" ry="0.384277" fill="#D9D9D9"/>
<ellipse cx="219.514" cy="246.785" rx="0.168457" ry="0.758301" fill="#D9D9D9"/>
<ellipse cx="218.588" cy="224.216" rx="0.757812" ry="0.583496" fill="#D9D9D9"/>
<ellipse cx="228.022" cy="218.146" rx="0.758301" ry="0.926758" fill="#D9D9D9"/>
<ellipse cx="251.776" cy="212.267" rx="0.926758" ry="0.371094" fill="#D9D9D9"/>
<ellipse cx="267.232" cy="226.653" rx="0.96875" ry="0.842285" fill="#D9D9D9"/>
<defs>
<radialGradient id="paint0_radial_502_215" cx="0" cy="0" r="1" gradientUnits="userSpaceOnUse" gradientTransform="translate(238.882 239.354) rotate(90) scale(168.723)">
<stop stop-color="#20265A"/>
<stop offset="0.25" stop-color="#17172E"/>
<stop offset="0.40625" stop-color="#292E6D"/>
<stop offset="0.557292" stop-color="#232A55"/>
<stop offset="0.770833" stop-color="#151B43"/>
<stop offset="0.979167" stop-color="#192050"/>
</radialGradient>
<linearGradient id="paint1_linear_502_215" x1="172.764" y1="172.903" x2="300.109" y2="299.935" gradientUnits="userSpaceOnUse">
<stop stop-color="#FF3A3A"/>
<stop offset="1" stop-color="#00F269"/>
</linearGradient>
<linearGradient id="paint2_linear_502_215" x1="171.924" y1="304.382" x2="281.989" y2="193.68" gradientUnits="userSpaceOnUse">
<stop stop-color="#FFF003"/>
<stop offset="1" stop-color="#00AFFF"/>
</linearGradient>
<linearGradient id="paint3_linear_502_215" x1="145.031" y1="245.005" x2="330.663" y2="234.065" gradientUnits="userSpaceOnUse">
<stop stop-color="#FF8550"/>
<stop offset="1" stop-color="#FF84E9"/>
</linearGradient>
<linearGradient id="paint4_linear_502_215" x1="232.892" y1="333.239" x2="239.293" y2="159.115" gradientUnits="userSpaceOnUse">
<stop stop-color="#00AA74"/>
<stop offset="1" stop-color="#8100C6"/>
</linearGradient>
<linearGradient id="paint5_linear_502_215" x1="158.81" y1="130.015" x2="147.456" y2="209.793" gradientUnits="userSpaceOnUse">
<stop offset="0.504504" stop-color="#FF3A3A"/>
<stop offset="1" stop-color="#FF3A3A" stop-opacity="0"/>
</linearGradient>
<linearGradient id="paint6_linear_502_215" x1="324.777" y1="348.697" x2="369.081" y2="290.161" gradientUnits="userSpaceOnUse">
<stop stop-color="#00F269"/>
<stop offset="1" stop-color="#00F269" stop-opacity="0"/>
</linearGradient>
<linearGradient id="paint7_linear_502_215" x1="342.445" y1="162.636" x2="305.47" y2="124.441" gradientUnits="userSpaceOnUse">
<stop stop-color="#00AFFF"/>
<stop offset="1" stop-color="#00AFFF" stop-opacity="0"/>
</linearGradient>
<linearGradient id="paint8_linear_502_215" x1="108.804" y1="234.169" x2="156.305" y2="300.235" gradientUnits="userSpaceOnUse">
<stop stop-color="#FF8550"/>
<stop offset="1" stop-color="#FF8550" stop-opacity="0"/>
</linearGradient>
<radialGradient id="paint9_radial_502_215" cx="0" cy="0" r="1" gradientUnits="userSpaceOnUse" gradientTransform="translate(242.619 127.513) rotate(47.1826) scale(204.092)">
<stop stop-color="#8100C6"/>
<stop offset="1" stop-color="#8100C6" stop-opacity="0"/>
</radialGradient>
<linearGradient id="paint10_linear_502_215" x1="258.313" y1="157.678" x2="361.488" y2="250.57" gradientUnits="userSpaceOnUse">
<stop offset="0.484375" stop-color="#FF8BEA" stop-opacity="0"/>
<stop offset="1" stop-color="#FF84E9"/>
</linearGradient>
<linearGradient id="paint11_linear_502_215" x1="239.09" y1="198.688" x2="239.09" y2="279.508" gradientUnits="userSpaceOnUse">
<stop stop-color="#1F1B36"/>
<stop offset="1" stop-color="#343F87"/>
</linearGradient>
</defs>
</svg>
